<svg width="55" height="55" viewBox="0 0 55 55" fill="none" xmlns="http://www.w3.org/2000/svg">
<rect width="54.5122" height="54.5122" rx="12" fill="#E45250"/>
<path fill-rule="evenodd" clip-rule="evenodd" d="M27.3418 45.7902C36.5787 45.7902 44.3709 40.3662 46.8027 32.9522C47.6633 30.3283 45.3507 28.0348 42.5892 28.0348H12.0945C9.33303 28.0348 7.02039 30.3283 7.88101 32.9522C10.3128 40.3662 18.105 45.7902 27.3418 45.7902Z" fill="#F0F0F0"/>
<ellipse cx="20.659" cy="22.3942" rx="3.11498" ry="4.66687" transform="rotate(-40.3621 20.659 22.3942)" fill="#F0F0F0"/>
<path d="M12.7576 24.1754C12.3417 23.1918 12.3329 22.0891 12.685 20.9925C13.1135 19.6583 14.5088 21.3709 14.7422 22.7526C15.0189 24.39 13.4043 25.7049 12.7576 24.1754Z" fill="#F0F0F0"/>
<path d="M27.695 14.0437C28.7766 13.7248 29.9473 13.8142 31.089 14.2545C32.5829 14.8306 30.4355 16.1776 28.8406 16.3183C27.0032 16.4804 25.9258 14.5655 27.695 14.0437Z" fill="#F0F0F0"/>
<path d="M9.60204 27.1003C11.7825 27.2561 12.2498 24.1411 9.60204 23.6738C6.9543 23.9853 7.42154 27.1003 9.60204 27.1003Z" fill="#F0F0F0"/>
<path d="M40.0979 22.7072L43.2036 22.1738C44.3905 21.97 45.5179 22.7669 45.7217 23.9538C45.9256 25.1407 45.1286 26.2681 43.9418 26.4719L40.7221 27.0248C39.9548 27.1566 39.1671 27.1011 38.4259 26.863L38.3154 26.8275C37.6976 26.629 37.2413 26.1036 37.1314 25.464C37.0263 24.8518 37.2552 24.23 37.7321 23.832L37.8175 23.7607C38.4716 23.2148 39.2582 22.8514 40.0979 22.7072Z" fill="#F0F0F0"/>
<ellipse cx="38.7813" cy="18.69" rx="2.64774" ry="2.80348" fill="#F0F0F0"/>
<circle cx="21.3374" cy="16.3537" r="1.09024" fill="#F0F0F0"/>
<path d="M27.4704 24.3962L28.1809 23.2927C28.6205 22.61 28.0561 21.7262 27.2517 21.8378C26.4947 21.9429 25.9456 21.1561 26.3928 20.5362C30.4682 14.8872 36.6205 19.6652 35.1805 24.2068C34.9664 24.8821 34.1085 24.9397 33.6482 24.4011C33.0496 23.7006 31.9045 24.0338 31.7752 24.9461L31.6306 25.9669C31.493 26.9376 30.4934 27.5324 29.5747 27.1904L28.234 26.6913C27.3052 26.3454 26.9339 25.2295 27.4704 24.3962Z" fill="#F0F0F0"/>
</svg>
